<svg xmlns="http://www.w3.org/2000/svg" height="800" width="1200" clip-rule="evenodd" fill-rule="evenodd" stroke-linejoin="round" stroke-miterlimit="1.4142" viewBox="-16.024635 -6.988 138.88017 41.928"><path d="M6.2368.1567v17.1179c0 1.4185.3377 2.5306 1.021 3.3292.6816.7974 1.6278 1.1973 2.8368 1.1973 1.0066 0 1.8522-.3999 2.5413-1.191.6828-.7917 1.0267-1.747 1.0267-2.8604 0-1.2744-.344-2.2761-1.0267-2.9952-.6891-.7265-1.6429-1.0863-2.8588-1.0863-.2904 0-.6218.0389-1.0066.1172-.3854.0721-.8858.2094-1.507.3987V7.8264a19.3448 19.3448 0 011.4668-.2426 9.9182 9.9182 0 011.2832-.0852c2.9462 0 5.3654.961 7.2579 2.8854 1.8987 1.9239 2.8443 4.39 2.8443 7.4065 0 2.8647-.9657 5.2732-2.899 7.229-1.932 1.9558-4.3312 2.9325-7.1963 2.9325-1.9188 0-3.703-.5241-5.3648-1.5722-1.6692-1.0456-2.933-2.4329-3.8043-4.1599-.3037-.7272-.5206-1.4988-.6558-2.3094C.0673 19.0994 0 17.9472 0 16.4483V.1567m24.877 2.3169c0-.6544.2627-1.2293.784-1.7276C26.1801.2482 26.782 0 27.4715 0c.7092 0 1.3178.242 1.8107.7265.4935.4909.7431 1.0726.7431 1.7471 0 .7385-.2363 1.3478-.7154 1.811-.4734.4652-1.0883.7015-1.8384.7015-.7293 0-1.3379-.2426-1.8453-.7209-.4998-.477-.7494-1.0788-.7494-1.7916zm6.9327 0c0-.6544.2635-1.2293.7834-1.7276C33.1137.2482 33.7154 0 34.4044 0c.7105 0 1.3178.242 1.8107.7265.4936.4909.7432 1.0726.7432 1.7471 0 .7385-.2358 1.3478-.7161 1.811-.4728.4652-1.0877.7015-1.8378.7015-.7299 0-1.3379-.2426-1.8446-.7209-.4998-.477-.75-1.0788-.75-1.7916zM27.9513 8.165v10.8354c0 .9102.2767 1.6487.8249 2.2191.5463.5686 1.2492.85 2.1005.85.8582 0 1.5611-.2814 2.1018-.85.5407-.5704.811-1.3089.811-2.219V8.1648h6.2979v9.86c0 3.024-.845 5.4374-2.5275 7.231-1.6824 1.799-3.9055 2.696-6.6763 2.696-1.5202 0-2.9254-.3146-4.2224-.9496-1.2907-.635-2.3853-1.5453-3.2844-2.7288-.5948-.8049-1.0273-1.6944-1.2977-2.6692-.2703-.9691-.4055-2.1652-.4055-3.5794v-9.86M42.5777 27.604V.1567h6.2972v9.2776c.6356-.5491 1.3379-.961 2.1162-1.2361.7834-.274 1.6014-.4125 2.4596-.4125 2.2967 0 4.128.8575 5.4937 2.5714 1.3643 1.7088 2.047 4.0439 2.047 6.994v10.253h-6.2777V16.7748c0-.909-.2772-1.6474-.8236-2.2178-.5482-.5686-1.2505-.85-2.1024-.85-.8437 0-1.541.2814-2.088.85-.547.5704-.8248 1.3089-.8248 2.2178V27.604M63.4818.1567h6.4122V27.604h-6.4122zm29.2974 20.2246c-1.055 2.4128-2.5344 4.2784-4.4337 5.5935-1.8987 1.3152-4.0609 1.9772-6.472 1.9772-1.3322 0-2.6154-.2558-3.8521-.7598-1.2298-.504-2.3244-1.2312-3.2775-2.1727-.987-.9748-1.7359-2.0674-2.2439-3.2785-.506-1.2155-.7632-2.505-.7632-3.8722 0-1.3678.2571-2.6573.7632-3.8728.508-1.211 1.2568-2.305 2.244-3.2778.953-.9303 2.0332-1.6493 3.256-2.147 1.2241-.4965 2.5149-.7467 3.8735-.7467 2.0333 0 3.8578.5241 5.4786 1.5647 1.6221 1.04 2.96 2.5576 4.0005 4.5542l-9.7167 6.3984-2.4319-3.5669 5.2567-3.5386c-.3452-.2226-.696-.3868-1.0682-.4902-.371-.1116-.7494-.1643-1.1487-.1643-1.236 0-2.2897.4576-3.1618 1.3679-.8714.9146-1.3045 2.0354-1.3045 3.3625 0 1.354.4262 2.493 1.2844 3.4089.8582.922 1.9056 1.381 3.1486 1.381 1.1619 0 2.2363-.341 3.2366-1.0137.9934-.6801 1.839-1.6624 2.5413-2.952m5.9973 9.4676V8.1662h5.7973v2.9112c.635-1.008 1.4517-1.7484 2.4526-2.2116 1.0072-.4645 2.2842-.6996 3.8446-.6996h.7507v5.8812h-.2772c-2.2835 0-3.9251.4903-4.9386 1.465-1.0072.981-1.5146 2.5714-1.5146 4.7843v7.3073" fill-rule="nonzero"/></svg>